<?xml version="1.0" encoding="utf-8"?>
<!-- Generator: Adobe Illustrator 25.3.0, SVG Export Plug-In . SVG Version: 6.00 Build 0)  -->
<!DOCTYPE svg PUBLIC "-//W3C//DTD SVG 1.1//EN" "http://www.w3.org/Graphics/SVG/1.1/DTD/svg11.dtd" [
	<!ENTITY st0 "fill-rule:evenodd;clip-rule:evenodd;fill:#352943;">
]>
<svg version="1.1" id="Layer_1" xmlns="http://www.w3.org/2000/svg" xmlns:xlink="http://www.w3.org/1999/xlink" x="0px" y="0px"
	 viewBox="0 0 90 45" style="enable-background:new 0 0 90 45;" xml:space="preserve">
<g>
	<path style="&st0;" d="M26.7,26.46L24.4,32.9l-4.39,3.44c0,0,2.41-5.28,2.9-5.61C23.41,30.39,26.7,26.46,26.7,26.46z"/>
	<path style="&st0;" d="M31.06,24.31c-0.03,0.1-2.8,3.63-1.71,3.34c1.09-0.3,6.4-2.54,6.4-2.54l-4.09,0.53L31.06,24.31z"/>
	<path style="&st0;" d="M30.23,28.71c0,0,2.24,2.61,1.98,3.86c-0.26,1.26-3.12,5.45-3.12,5.45s0.38-4.23,0.71-5.61
		C30.13,31.02,30.23,28.71,30.23,28.71z"/>
	<path style="&st0;" d="M35.15,29.4c0.03-0.1,4.16-6.87,4.65-7.1c0.49-0.23,2.51-0.92,2.51-0.92s0.73,0.92-1.35,3.37
		C38.87,27.19,35.15,29.4,35.15,29.4z"/>
	<path style="&st0;" d="M48.14,22.76c0,0-0.3,4.16-0.56,4.49c-0.26,0.33-1.68,4.29-2.31,5.25c-0.63,0.96-6.73,10.4-6.73,10.4
		s11.01-9.54,12.1-9.31c1.09,0.23,2.21,0.4,2.21,0.4s-0.53-1.72-1.48-3.14c-0.96-1.42-1.42-2.91-1.55-3.8
		C49.69,26.16,48.14,22.76,48.14,22.76z"/>
	<path style="&st0;" d="M50.68,19.99c0,0.1-0.03,3.96,0.59,5.75c0.63,1.78,1.71,4.13,1.58,2.38C52.72,26.36,50.68,19.99,50.68,19.99
		z"/>
	<path style="&st0;" d="M53.75,19.62c0.07,0.1,2.9,8.75,3.36,8.62c0.46-0.13,1.62-1.09,1.62-1.09s-2.51,3.8-3.3,5.45
		c-0.79,1.65-2.57,4.26-2.57,4.26s5.01-2.84,6.04-4.03c1.02-1.19,0.3-1.39,0.86-3.24c0.56-1.85,1.06-2.48,1.06-2.48
		s1.62,3.77,2.41,4.79c0.79,1.02,1.48,6.8,1.48,6.8s0.69-5.75,1.78-5.22c1.09,0.53,2.87,2.38,3.3,2.68c0.43,0.3-2.11-2.91-2.87-4.13
		c-0.76-1.22-0.89-2.64,0.2-2.64c1.09,0,0.86,0.89,2.14,0c1.29-0.89,1.32-1.39,2.84-2.05c1.52-0.66,1.22-1.78,2.74,1.09
		c1.52,2.87,2.67,6.01,4.06,6.74c1.38,0.73,2.21,0.96,3.13,1.49c0.92,0.53,0.86,1.68,1.91,3.1c1.05,1.42,2.04,2.48,2.31,2.28
		c0.26-0.2,0.3-0.13-0.86-2.08c-1.15-1.95-1.58-1.82-2.31-3.24c-0.73-1.42-0.26-1.16-1.95-1.68c-1.68-0.53-2.41-0.13-2.9-1.82
		c-0.49-1.68-2.57-5.19-3.33-6.31c-0.76-1.12-1.12-2.38-1.88-1.49c-0.76,0.89-3.26,2.51-3.89,2.77c-0.63,0.26-2.87-0.69-3.1-0.03
		c-0.23,0.66-0.3,1.25-0.36,1.22c-0.07-0.03-0.96-0.36-1.62-2.05c-0.66-1.68-1.81-2.77-3.89-3.86c-2.08-1.09-2.57-2.05-3.73-3.5
		c-1.15-1.45-2.9-3.11-4.22-3.86c-1.32-0.76-1.42-0.73-2.24-2.77c-0.82-2.05-1.32-2.91-3.03-4.95c-1.71-2.05-1.81-4.16-2.77-2.81
		c-0.96,1.35-2.74,3.93-3,4.46c-0.26,0.53-0.59,0-1.35-0.76c-0.76-0.76-1.55,0.23-2.61,1.32c-1.06,1.09-3.96,7.03-4.19,7.46
		c-0.23,0.43-0.43,0.66-1.75,1.09c-1.32,0.43-1.32,0.79-2.01,1.75c-0.69,0.96-1.71,2.67-3.1,3.45c-1.39,0.78-2.84,0.98-3.59,2.37
		c-0.76,1.39-0.73,2.18-1.58,3.07c-0.86,0.89-1.75,2.74-2.97,0.92c-1.22-1.82-3.56-1.16-4.52-1.32c-0.96-0.17-3,1.29-3.86,2.94
		c-0.86,1.65-1.98,4.99-3.2,5.51c-1.22,0.53-3.79,1.68-3.79,1.68s0.4,0.6,1.55-0.07c1.15-0.66,2.64-1.39,3.46-2.25
		c0.82-0.86,1.42-2.68,2.28-4.03c0.86-1.35,2.44-2.74,3.59-2.91c1.15-0.17,1.15-1.02,2.37,0c1.22,1.02,2.14,2.51,3.13,1.98
		c0.99-0.53,2.34-2.84,0.99-0.53c-1.35,2.31-1.35,3.37-3.26,4.76c-1.91,1.39-4.95,2.91-5.34,3.01c-0.4,0.1,1.81-0.07,3.26-0.99
		c1.45-0.92,2.77-0.76,4.19-3.01c1.42-2.25-0.4-1.02,1.85-3.77c2.24-2.74,2.54-4,4.12-5.05c1.58-1.06,2.87-2.09,3.43-3.08
		c0.56-0.99,1.02-1.75,1.91-2.47c0.89-0.73,1.88-1.88,1.35-0.56c-0.53,1.32-2.7,4.1-2.61,4.1c0.1,0,3.43-1.72,3.99-2.28
		c0.56-0.56,0.56-2.01,0.96-3.67c0.4-1.65,2.94-5.45,4.19-6.9c1.25-1.45,1.55-2.28,2.08-1.55c0.53,0.73,0.73-0.26,0.99,0.92
		c0.26,1.19,0.81,1.92,1.31,3.77c0.5,1.85,0.4,6.87,1.33,7.27c0.92,0.4,2.11,1.65,2.11,1.65s-1.19-3.3-1.58-5.38
		c-0.4-2.08-0.92-4.26-1.48-5.28c-0.56-1.02-1.64-1.92-1.2-2.81c0.44-0.89,2.09-2.91,2.48-3.37c0.4-0.46,1.38-0.13,0.82,1.32
		c-0.56,1.45-1.25,2.11-1.32,3.01c-0.07,0.89,0.42,2.01,0.92,3.37s4.66,6.64,4.66,6.64s-0.2-3.34-0.63-4.59
		c-0.43-1.26-2.47-2.84-2.84-3.76c-0.36-0.93,0-3.57,0-3.57s-0.3,1.75,2.14,3.96c2.44,2.21,2.64,3.4,3.33,3.9
		c0.69,0.5,1.42,0.59,2.08,1.25c0.66,0.66,2.34,2.01,2.04,2.31C55,21.18,53.75,19.62,53.75,19.62z"/>
</g>
</svg>
